<svg width="90" height="92" viewBox="0 0 90 92" fill="none" xmlns="http://www.w3.org/2000/svg">
<path d="M46.1845 0.400024V90H15.9765V23.184H0.616501V0.400024H46.1845Z" fill="#CCD3C4"/>
<path d="M72.9325 91.28C68.0685 91.28 64.0152 89.744 60.7725 86.672C57.6152 83.5147 56.0365 79.504 56.0365 74.64C56.0365 69.776 57.6152 65.8507 60.7725 62.864C64.0152 59.792 68.0685 58.256 72.9325 58.256C77.7965 58.256 81.8072 59.792 84.9645 62.864C88.2072 65.8507 89.8285 69.776 89.8285 74.64C89.8285 79.504 88.2072 83.5147 84.9645 86.672C81.8072 89.744 77.7965 91.28 72.9325 91.28Z" fill="#CCD3C4"/>
</svg>
