<svg width="118" height="94" viewBox="0 0 118 94" fill="none" xmlns="http://www.w3.org/2000/svg">
<path d="M77.056 68.576V92.0001H5.248V73.4401L37.632 43.4881C40.448 40.8427 42.3253 38.5814 43.264 36.704C44.2027 34.8267 44.672 32.9921 44.672 31.2001C44.672 28.9814 43.904 27.2747 42.368 26.08C40.9173 24.8 38.784 24.16 35.968 24.16C33.2373 24.16 30.6773 24.8854 28.288 26.3361C25.8987 27.7867 24.064 29.8347 22.784 32.48L0 21.0881C3.41333 14.6881 8.40533 9.65338 14.976 5.98405C21.5467 2.22938 29.4827 0.352051 38.784 0.352051C45.8667 0.352051 52.1387 1.50405 57.6 3.80805C63.0613 6.11205 67.328 9.39738 70.4 13.664C73.472 17.9307 75.008 22.8374 75.008 28.3841C75.008 33.3334 73.9413 37.9841 71.808 42.3361C69.76 46.6027 65.7067 51.4667 59.648 56.928L46.848 68.576H77.056Z" fill="#CCD3C4"/>
<path d="M100.245 93.2801C95.381 93.2801 91.3277 91.7441 88.085 88.6721C84.9277 85.5147 83.349 81.5041 83.349 76.6401C83.349 71.7761 84.9277 67.8507 88.085 64.8641C91.3277 61.7921 95.381 60.2561 100.245 60.2561C105.109 60.2561 109.12 61.7921 112.277 64.8641C115.52 67.8507 117.141 71.7761 117.141 76.6401C117.141 81.5041 115.52 85.5147 112.277 88.6721C109.12 91.7441 105.109 93.2801 100.245 93.2801Z" fill="#CCD3C4"/>
</svg>
