<svg width="116" height="93" viewBox="0 0 116 93" fill="none" xmlns="http://www.w3.org/2000/svg">
<path d="M54.93 35.856C61.842 37.5627 67.1327 40.6774 70.802 45.2C74.5567 49.6374 76.434 55.0134 76.434 61.328C76.434 66.704 74.9407 71.7387 71.954 76.432C69.0527 81.04 64.53 84.7947 58.386 87.696C52.242 90.5974 44.6047 92.048 35.474 92.048C29.1593 92.048 22.8447 91.3654 16.53 90C10.3007 88.6347 4.83933 86.6294 0.146 83.984L10.386 61.712C14.0553 63.8454 17.9807 65.4667 22.162 66.576C26.4287 67.6854 30.5247 68.24 34.45 68.24C37.9487 68.24 40.7647 67.6427 42.898 66.448C45.0313 65.2534 46.098 63.5467 46.098 61.328C46.098 57.232 42.5567 55.184 35.474 55.184H23.57V36.624L36.754 23.184H4.754V0.400024H71.57V18.96L54.93 35.856Z" fill="#CCD3C4"/>
<path d="M98.995 91.28C94.131 91.28 90.0777 89.744 86.835 86.672C83.6777 83.5147 82.099 79.504 82.099 74.64C82.099 69.776 83.6777 65.8507 86.835 62.864C90.0777 59.792 94.131 58.256 98.995 58.256C103.859 58.256 107.87 59.792 111.027 62.864C114.27 65.8507 115.891 69.776 115.891 74.64C115.891 79.504 114.27 83.5147 111.027 86.672C107.87 89.744 103.859 91.28 98.995 91.28Z" fill="#CCD3C4"/>
</svg>
