<svg width="128" height="92" viewBox="0 0 128 92" fill="none" xmlns="http://www.w3.org/2000/svg">
<path d="M88.624 74.64H76.72V90H47.408V74.64H0.944031V55.44L38.96 0.400024H69.936L36.144 51.216H48.304V37.52H76.72V51.216H88.624V74.64Z" fill="#CCD3C4"/>
<path d="M111.081 91.28C106.217 91.28 102.164 89.744 98.921 86.672C95.7637 83.5147 94.185 79.504 94.185 74.64C94.185 69.776 95.7637 65.8507 98.921 62.864C102.164 59.792 106.217 58.256 111.081 58.256C115.945 58.256 119.956 59.792 123.113 62.864C126.356 65.8507 127.977 69.776 127.977 74.64C127.977 79.504 126.356 83.5147 123.113 86.672C119.956 89.744 115.945 91.28 111.081 91.28Z" fill="#CCD3C4"/>
</svg>
