<svg width="116" height="93" viewBox="0 0 116 93" fill="none" xmlns="http://www.w3.org/2000/svg">
<path d="M40.32 32.016C52.864 32.016 62.08 34.6614 67.968 39.952C73.9414 45.1574 76.928 52.0267 76.928 60.56C76.928 66.192 75.4347 71.3974 72.448 76.176C69.5467 80.8694 65.024 84.7094 58.88 87.696C52.736 90.5974 45.0987 92.048 35.968 92.048C29.6534 92.048 23.3387 91.3654 17.024 90C10.7947 88.6347 5.33335 86.6294 0.640015 83.984L10.88 61.712C14.6347 63.8454 18.56 65.4667 22.656 66.576C26.8373 67.6854 30.8907 68.24 34.816 68.24C38.3147 68.24 41.1307 67.6427 43.264 66.448C45.4827 65.168 46.592 63.4187 46.592 61.2C46.592 59.0667 45.6107 57.488 43.648 56.464C41.6854 55.3547 38.144 54.8 33.024 54.8H7.04002L11.52 0.400024H71.04V23.184H36.352L35.712 32.016H40.32Z" fill="#CCD3C4"/>
<path d="M98.706 91.28C93.842 91.28 89.7887 89.744 86.546 86.672C83.3887 83.5147 81.81 79.504 81.81 74.64C81.81 69.776 83.3887 65.8507 86.546 62.864C89.7887 59.792 93.842 58.256 98.706 58.256C103.57 58.256 107.581 59.792 110.738 62.864C113.981 65.8507 115.602 69.776 115.602 74.64C115.602 79.504 113.981 83.5147 110.738 86.672C107.581 89.744 103.57 91.28 98.706 91.28Z" fill="#CCD3C4"/>
</svg>
