<svg width="120" height="95" viewBox="0 0 120 95" fill="none" xmlns="http://www.w3.org/2000/svg">
<path d="M49.352 34.0161C54.8133 34.0161 59.8906 35.2107 64.584 37.6001C69.2773 39.9894 73.032 43.3601 75.848 47.7121C78.664 52.0641 80.072 57.056 80.072 62.688C80.072 68.9174 78.4506 74.4214 75.208 79.2001C72.0506 83.9787 67.6986 87.6481 62.152 90.2081C56.6053 92.7681 50.4613 94.048 43.72 94.048C35.1013 94.048 27.5493 92.3841 21.064 89.0561C14.664 85.7281 9.67198 80.7787 6.08798 74.2081C2.50398 67.6374 0.711975 59.5734 0.711975 50.0161C0.711975 39.7761 2.75998 30.9014 6.85598 23.3921C11.0373 15.8827 16.84 10.1654 24.264 6.24005C31.7733 2.31472 40.4773 0.352051 50.376 0.352051C55.752 0.352051 60.872 0.99205 65.736 2.27205C70.6 3.46672 74.7386 5.17338 78.152 7.39205L67.272 28.5121C62.8346 25.3547 57.416 23.776 51.016 23.776C45.8106 23.776 41.5013 25.0987 38.088 27.744C34.76 30.304 32.584 34.0587 31.56 39.008C36.2533 35.68 42.184 34.0161 49.352 34.0161ZM41.672 73.1841C44.4026 73.1841 46.6213 72.3734 48.328 70.7521C50.0346 69.1307 50.888 66.9121 50.888 64.0961C50.888 61.2801 50.0346 59.0614 48.328 57.4401C46.6213 55.7334 44.4026 54.8801 41.672 54.8801C38.9413 54.8801 36.7226 55.7334 35.016 57.4401C33.3093 59.0614 32.456 61.2801 32.456 64.0961C32.456 66.9121 33.3093 69.1307 35.016 70.7521C36.7226 72.3734 38.9413 73.1841 41.672 73.1841Z" fill="#CCD3C4"/>
<path d="M102.331 93.2801C97.467 93.2801 93.4136 91.744 90.171 88.6721C87.0136 85.5147 85.435 81.5041 85.435 76.6401C85.435 71.7761 87.0136 67.8507 90.171 64.8641C93.4136 61.7921 97.467 60.2561 102.331 60.2561C107.195 60.2561 111.206 61.7921 114.363 64.8641C117.606 67.8507 119.227 71.7761 119.227 76.6401C119.227 81.5041 117.606 85.5147 114.363 88.6721C111.206 91.744 107.195 93.2801 102.331 93.2801Z" fill="#CCD3C4"/>
</svg>
