<svg width="40" height="44" viewBox="0 0 40 44" fill="none" xmlns="http://www.w3.org/2000/svg">
<path d="M35.5556 4.4H26.2667C25.3333 1.848 22.8889 0 20 0C17.1111 0 14.6667 1.848 13.7333 4.4H4.44444C4.13333 4.4 3.84444 4.422 3.55556 4.488C2.84781 4.63501 2.18676 4.95011 1.62931 5.40617C1.07187 5.86223 0.634738 6.44558 0.355556 7.106C0.133334 7.612 0 8.184 0 8.8V39.6C0 40.194 0.133334 40.788 0.355556 41.316C0.577778 41.844 0.911111 42.306 1.31111 42.724C1.91111 43.318 2.68889 43.758 3.55556 43.934C3.84444 43.978 4.13333 44 4.44444 44H35.5556C38 44 40 42.02 40 39.6V8.8C40 6.38 38 4.4 35.5556 4.4ZM16.2222 30.536C15.3556 31.394 13.9333 31.394 13.0667 30.536L8.24444 25.762C8.03844 25.5585 7.875 25.3167 7.76348 25.0506C7.65197 24.7844 7.59457 24.4991 7.59457 24.211C7.59457 23.9229 7.65197 23.6376 7.76348 23.3714C7.875 23.1053 8.03844 22.8635 8.24444 22.66L13.0667 17.886C13.9333 17.028 15.3556 17.028 16.2222 17.886C17.0889 18.744 17.0889 20.13 16.2222 20.988L12.9556 24.2L16.2 27.412C17.0667 28.27 17.0889 29.678 16.2222 30.536ZM20 7.15C19.0889 7.15 18.3333 6.402 18.3333 5.5C18.3333 4.598 19.0889 3.85 20 3.85C20.9111 3.85 21.6667 4.598 21.6667 5.5C21.6667 6.402 20.9111 7.15 20 7.15ZM23.7778 30.536C23.5718 30.3325 23.4083 30.0907 23.2968 29.8246C23.1853 29.5584 23.1279 29.2731 23.1279 28.985C23.1279 28.6969 23.1853 28.4116 23.2968 28.1454C23.4083 27.8793 23.5718 27.6375 23.7778 27.434L27.0444 24.2L23.7778 20.966C23.5718 20.7625 23.4083 20.5207 23.2968 20.2546C23.1853 19.9884 23.1279 19.7031 23.1279 19.415C23.1279 19.1269 23.1853 18.8416 23.2968 18.5754C23.4083 18.3093 23.5718 18.0675 23.7778 17.864C24.6444 17.006 26.0667 17.006 26.9333 17.864L31.7556 22.638C32.6222 23.496 32.6222 24.882 31.7556 25.74L26.9333 30.514C26.0667 31.394 24.6444 31.394 23.7778 30.536Z" fill="#DEB47D"/>
</svg>
