<svg width="42" height="47" viewBox="0 0 42 47" fill="none" xmlns="http://www.w3.org/2000/svg">
<path d="M20.5 10.2812C19.6946 10.2812 19.0357 9.62031 19.0357 8.8125V7.34375C19.0357 3.28633 22.3121 0 26.3571 0H27.8214C28.6268 0 29.2857 0.660937 29.2857 1.46875V2.9375C29.2857 6.99492 26.0094 10.2812 21.9643 10.2812H20.5ZM0 26.4375C0 19.4334 3.26719 11.75 10.25 11.75C12.7484 11.75 15.7136 12.6955 17.8185 13.5217C19.5391 14.1918 21.4701 14.1918 23.1906 13.5217C25.2864 12.7047 28.2607 11.75 30.7592 11.75C37.742 11.75 41.0092 19.4334 41.0092 26.4375C41.0092 38.1875 33.6877 47 26.3663 47C24.8563 47 22.8795 46.3941 21.6531 45.9627C20.9118 45.7057 20.1065 45.7057 19.3652 45.9627C18.1388 46.3941 16.1621 47 14.652 47C7.32143 47 0 38.1875 0 26.4375Z" fill="#DEB47D"/>
</svg>
