<svg width="41" height="33" viewBox="0 0 41 33" fill="none" xmlns="http://www.w3.org/2000/svg">
<path d="M26.625 15.3261C26.6591 15.3261 26.8292 15.2751 27.1355 15.173L32.2396 12.2636C32.4098 12.1615 32.5377 12.0343 32.6235 11.8818C32.7078 11.728 32.75 11.5661 32.75 11.3959C32.75 11.2258 32.7078 11.0638 32.6235 10.91C32.5377 10.7576 32.4098 10.6303 32.2396 10.5282L27.1355 7.61883C27.1014 7.5848 26.9313 7.53376 26.625 7.46571L26.1146 7.61883L21.0105 10.5282C20.8403 10.6303 20.7124 10.7576 20.6266 10.91C20.5422 11.0638 20.5 11.2258 20.5 11.3959C20.5 11.5661 20.5422 11.728 20.6266 11.8818C20.7124 12.0343 20.8403 12.1615 21.0105 12.2636L26.1146 15.173C26.1827 15.207 26.3528 15.2581 26.625 15.3261ZM26.625 20.124C26.7611 20.124 27.1014 20.039 27.6459 19.8688L30.7084 18.1334C31.0487 17.9633 31.3039 17.7251 31.474 17.4188C31.6441 17.1126 31.7292 16.7723 31.7292 16.398V14.4584L26.625 17.3678L21.5209 14.4584V16.398C21.5209 16.7723 21.6059 17.1126 21.7761 17.4188C21.9462 17.7251 22.2014 17.9633 22.5417 18.1334L25.6042 19.8688C25.7743 19.9369 25.9445 19.9961 26.1146 20.0465C26.2848 20.0982 26.4549 20.124 26.625 20.124ZM22.5417 32.8334C22.5417 29.7369 21.9544 26.8275 20.7797 24.1053C19.6065 21.3831 17.999 19.0011 15.9573 16.9595C13.9157 14.9178 11.5337 13.3103 8.8115 12.137C6.08928 10.9624 3.1799 10.3751 0.083374 10.3751V4.25008C0.083374 3.12716 0.483541 2.16622 1.28387 1.36725C2.08285 0.566914 3.04379 0.166748 4.16671 0.166748H36.8334C37.9563 0.166748 38.9179 0.566914 39.7182 1.36725C40.5172 2.16622 40.9167 3.12716 40.9167 4.25008V28.7501C40.9167 29.873 40.5172 30.8346 39.7182 31.635C38.9179 32.4339 37.9563 32.8334 36.8334 32.8334H22.5417ZM8.25004 32.8334C7.77365 32.8334 7.30543 32.6463 6.84537 32.272C6.38668 31.8977 6.05525 31.4213 5.85108 30.8428C5.54483 29.9581 5.06028 29.1836 4.39742 28.5194C3.73319 27.8565 2.95872 27.372 2.074 27.0657C1.49553 26.8615 1.01914 26.5383 0.644832 26.0959C0.270527 25.6536 0.083374 25.1772 0.083374 24.6667C0.083374 24.0883 0.279374 23.6119 0.671374 23.2376C1.06201 22.8633 1.52955 22.7272 2.074 22.8293C4.11567 23.2376 5.85993 24.1645 7.30679 25.61C8.75229 27.0569 9.67921 28.8011 10.0875 30.8428C10.1896 31.3872 10.0624 31.8548 9.70575 32.2454C9.34778 32.6374 8.86254 32.8334 8.25004 32.8334ZM16.4167 32.8334C15.8723 32.8334 15.3877 32.6374 14.963 32.2454C14.537 31.8548 14.29 31.3702 14.2219 30.7917C13.7796 27.6272 12.4443 24.9301 10.2162 22.7006C7.98666 20.4725 5.28962 19.1372 2.12504 18.6949C1.54657 18.6268 1.06201 18.3886 0.671374 17.9803C0.279374 17.572 0.083374 17.0786 0.083374 16.5001C0.083374 15.9216 0.287541 15.4364 0.695874 15.0444C1.10421 14.6537 1.5806 14.4924 2.12504 14.5605C6.41254 15.0369 10.0705 16.7893 13.099 19.8178C16.1275 22.8463 17.8799 26.5042 18.3563 30.7917C18.4243 31.3362 18.2631 31.8126 17.8724 32.2209C17.4804 32.6292 16.9952 32.8334 16.4167 32.8334Z" fill="#DEB47D"/>
</svg>
