<svg width="41" height="41" viewBox="0 0 41 41" fill="none" xmlns="http://www.w3.org/2000/svg">
<path d="M20.4795 0.083252C9.1635 0.083252 0 9.22992 0 20.4999C0 31.7699 9.1635 40.9166 20.4795 40.9166C31.816 40.9166 41 31.7699 41 20.4999C41 9.22992 31.816 0.083252 20.4795 0.083252ZM13.325 12.3333C15.0265 12.3333 16.4 13.7012 16.4 15.3958C16.4 17.0903 15.0265 18.4583 13.325 18.4583C11.6235 18.4583 10.25 17.0903 10.25 15.3958C10.25 13.7012 11.6235 12.3333 13.325 12.3333ZM30.1555 26.0533C28.29 30.0345 24.682 32.7499 20.5 32.7499C16.318 32.7499 12.71 30.0345 10.8445 26.0533C10.5165 25.3795 11.0085 24.5833 11.767 24.5833H29.233C29.9915 24.5833 30.4835 25.3795 30.1555 26.0533ZM27.675 18.4583C25.9735 18.4583 24.6 17.0903 24.6 15.3958C24.6 13.7012 25.9735 12.3333 27.675 12.3333C29.3765 12.3333 30.75 13.7012 30.75 15.3958C30.75 17.0903 29.3765 18.4583 27.675 18.4583Z" fill="#DEB47D"/>
</svg>
