<svg width="41" height="43" viewBox="0 0 41 43" fill="none" xmlns="http://www.w3.org/2000/svg">
<path fill-rule="evenodd" clip-rule="evenodd" d="M3.41667 0.875C2.51051 0.875 1.64147 1.23716 1.00072 1.88182C0.359969 2.52648 0 3.40082 0 4.3125V38.6875C0 39.5992 0.359969 40.4735 1.00072 41.1182C1.64147 41.7628 2.51051 42.125 3.41667 42.125H37.5833C38.4895 42.125 39.3585 41.7628 39.9993 41.1182C40.64 40.4735 41 39.5992 41 38.6875V4.3125C41 3.40082 40.64 2.52648 39.9993 1.88182C39.3585 1.23716 38.4895 0.875 37.5833 0.875H3.41667ZM5.11361 12.2359C4.56125 12.7917 4.4075 13.4494 4.72639 14.0131C5.11475 14.7018 5.54639 15.3045 5.95525 15.8041C5.56262 15.8547 5.19998 16.042 4.93025 16.3334C4.63414 16.6554 4.47811 17.084 4.44964 17.5629C3.80508 16.8145 3.23447 16.0048 2.74586 15.1452C1.75047 13.3795 2.50556 11.6183 3.50208 10.6157C4.00661 10.107 4.64781 9.70365 5.32772 9.52833C6.0065 9.35417 6.86864 9.38396 7.55425 9.9924C8.74439 11.0466 9.29333 11.1382 9.59172 11.1669C9.64297 11.1715 9.71017 11.1726 9.79103 11.1749C10.2136 11.1818 11.0119 11.1944 11.8353 11.7788L10.5233 13.6522C10.3035 13.4964 10.2614 13.4952 9.99944 13.4872C9.86619 13.4826 9.67486 13.4769 9.37305 13.4482C8.47219 13.3611 7.49389 12.9899 6.06686 11.7272C6.00795 11.7237 5.9489 11.7311 5.89261 11.749C5.67508 11.8051 5.38125 11.9655 5.11247 12.2359H5.11361ZM6.0828 11.7318C6.0828 11.7318 6.07825 11.7318 6.07142 11.7283L6.0828 11.7318ZM10.5746 18.074C12.0756 19.5063 12.4948 21.4656 11.5096 22.4476C10.5256 23.4307 8.51092 23.0664 7.00986 21.6329C5.50881 20.2006 5.08969 18.2413 6.07483 17.2593C7.05883 16.2761 9.07353 16.6405 10.5746 18.0728V18.074ZM35.35 12.2073C35.8568 12.7539 36.0253 13.4425 35.7099 14.0418C35.3846 14.6565 35.0102 15.2435 34.5903 15.7972C34.9867 15.8476 35.3374 16.0229 35.6017 16.3334C35.8887 16.6703 36.0356 17.1241 36.0527 17.6305C36.6902 16.8496 37.2495 16.0071 37.7223 15.1154C38.6334 13.3852 37.9546 11.6561 37.0162 10.6444C36.5412 10.1333 35.9297 9.71625 35.2668 9.53292C34.5949 9.34844 33.7384 9.38396 33.0711 10.0188C31.9629 11.0706 31.4698 11.1428 31.2317 11.168C31.176 11.1716 31.1202 11.1735 31.0643 11.1737C30.6794 11.1795 29.8799 11.1921 29.077 11.8005L30.4493 13.6293C30.6281 13.4941 30.6407 13.4941 30.8514 13.4883C30.9709 13.4849 31.1532 13.4792 31.4641 13.4471C32.341 13.3566 33.2681 12.9704 34.5892 11.7283C34.615 11.7318 34.6405 11.7372 34.6655 11.7444C34.8397 11.7925 35.1017 11.9392 35.35 12.2073ZM34.5562 11.726H34.5664H34.5562ZM29.7842 18.074C28.282 19.5063 27.8641 21.4656 28.8481 22.4476C29.8332 23.4307 31.8479 23.0664 33.3489 21.6329C34.85 20.2006 35.2691 18.2413 34.284 17.2593C33.3 16.2761 31.2841 16.6405 29.7831 18.0728L29.7842 18.074ZM15.998 19.2576C12.915 19.2576 8.28656 10.0417 20.6253 10.0417C32.964 10.0417 27.8231 19.2576 24.7378 19.2576C23.2686 19.2576 23.1559 22.6241 23.0374 26.1521C22.9497 28.7692 22.8586 31.4756 22.2083 32.9583C22.0045 33.4224 21.656 33.2838 21.2687 33.1302C21.0603 33.0466 20.8405 32.9583 20.6253 32.9583C20.4203 32.9583 20.1857 33.0385 19.9522 33.1176C19.4841 33.2769 19.0172 33.435 18.7917 32.9583C18.0821 31.4573 17.9398 28.7061 17.8042 26.0604C17.6243 22.5656 17.4546 19.2576 15.998 19.2576Z" fill="#DEB47D"/>
</svg>
