<svg width="46" height="46" viewBox="0 0 46 46" fill="none" xmlns="http://www.w3.org/2000/svg">
<g clip-path="url(#clip0_305_21)">
<path fill-rule="evenodd" clip-rule="evenodd" d="M43.1209 4.31665H2.88025C2.11793 4.31665 1.38683 4.61948 0.847793 5.15852C0.308751 5.69756 0.00592041 6.42866 0.00592041 7.19098V38.8086C0.00592041 39.5709 0.308751 40.302 0.847793 40.8411C1.38683 41.3801 2.11793 41.683 2.88025 41.683H43.1209C43.8832 41.683 44.6143 41.3801 45.1534 40.8411C45.6924 40.302 45.9952 39.5709 45.9952 38.8086V7.19098C45.9952 6.42866 45.6924 5.69756 45.1534 5.15852C44.6143 4.61948 43.8832 4.31665 43.1209 4.31665V4.31665ZM5.75458 35.9343V10.0653H40.2466V35.9343H5.75458Z" fill="#DEB47D"/>
<path fill-rule="evenodd" clip-rule="evenodd" d="M44.9833 9.37835L24.7336 26.6243C24.2114 27.0688 23.5475 27.312 22.8617 27.3099C22.176 27.3077 21.5136 27.0605 20.9941 26.6128L1.00312 9.36685C-1.01466 7.62788 0.215552 4.31665 2.88006 4.31665H43.1207C45.7938 4.31665 47.0183 7.64513 44.9833 9.37835ZM10.612 10.0653L22.8854 20.6515L35.3083 10.0653H10.612Z" fill="#DEB47D"/>
</g>
<defs>
<clipPath id="clip0_305_21">
<rect width="46" height="46" fill="white"/>
</clipPath>
</defs>
</svg>
