<svg width="47" height="47" viewBox="0 0 47 47" fill="none" xmlns="http://www.w3.org/2000/svg">
<path d="M23.5 47C10.521 47 0 36.479 0 23.5C0 10.521 10.521 0 23.5 0C36.479 0 47 10.521 47 23.5C47 36.479 36.479 47 23.5 47ZM23.5 42.3C28.4861 42.3 33.2679 40.3193 36.7936 36.7936C40.3193 33.2679 42.3 28.4861 42.3 23.5C42.3 18.5139 40.3193 13.7321 36.7936 10.2064C33.2679 6.68071 28.4861 4.7 23.5 4.7C18.5139 4.7 13.7321 6.68071 10.2064 10.2064C6.68071 13.7321 4.7 18.5139 4.7 23.5C4.7 28.4861 6.68071 33.2679 10.2064 36.7936C13.7321 40.3193 18.5139 42.3 23.5 42.3ZM15.275 28.2H28.2C28.5116 28.2 28.8105 28.0762 29.0308 27.8559C29.2512 27.6355 29.375 27.3366 29.375 27.025C29.375 26.7134 29.2512 26.4145 29.0308 26.1941C28.8105 25.9738 28.5116 25.85 28.2 25.85H18.8C17.2419 25.85 15.7475 25.231 14.6457 24.1293C13.544 23.0275 12.925 21.5331 12.925 19.975C12.925 18.4169 13.544 16.9225 14.6457 15.8207C15.7475 14.719 17.2419 14.1 18.8 14.1H21.15V9.4H25.85V14.1H31.725V18.8H18.8C18.4884 18.8 18.1895 18.9238 17.9691 19.1441C17.7488 19.3645 17.625 19.6634 17.625 19.975C17.625 20.2866 17.7488 20.5855 17.9691 20.8059C18.1895 21.0262 18.4884 21.15 18.8 21.15H28.2C29.7581 21.15 31.2525 21.769 32.3543 22.8707C33.456 23.9725 34.075 25.4669 34.075 27.025C34.075 28.5831 33.456 30.0775 32.3543 31.1793C31.2525 32.281 29.7581 32.9 28.2 32.9H25.85V37.6H21.15V32.9H15.275V28.2Z" fill="#DEB47D"/>
</svg>
