<svg width="47" height="46" viewBox="0 0 47 46" fill="none" xmlns="http://www.w3.org/2000/svg">
<path d="M31.6894 28.7024C32.8806 27.0396 33.5212 25.0455 33.5212 23C33.5212 20.9545 32.8806 18.9604 31.6894 17.2976L35.164 13.823L37.2882 15.9472C37.5963 16.2552 38.0141 16.4282 38.4497 16.4282C38.8853 16.4282 39.3031 16.2552 39.6112 15.9472L46.1826 9.37579C46.4906 9.0677 46.6637 8.64991 46.6637 8.21429C46.6637 7.77866 46.4906 7.36087 46.1826 7.05279L39.6112 0.481357C39.3031 0.173369 38.8853 0.000350952 38.4497 0.000350952C38.0141 0.000350952 37.5963 0.173369 37.2882 0.481357L30.7168 7.05279C30.4088 7.36087 30.2358 7.77866 30.2358 8.21429C30.2358 8.64991 30.4088 9.0677 30.7168 9.37579L32.841 11.5L29.3664 14.9746C27.7036 13.7834 25.7095 13.1428 23.664 13.1428C21.6185 13.1428 19.6244 13.7834 17.9616 14.9746L13.8069 10.8182V0H0.664001V13.1429H11.4839L15.6386 17.2976C14.4474 18.9604 13.8068 20.9545 13.8068 23C13.8068 25.0455 14.4474 27.0396 15.6386 28.7024L12.164 32.177L10.0398 30.0528C9.73171 29.7448 9.31391 29.5718 8.87829 29.5718C8.44266 29.5718 8.02487 29.7448 7.71679 30.0528L1.14536 36.6242C0.83737 36.9323 0.664352 37.3501 0.664352 37.7857C0.664352 38.2213 0.83737 38.6391 1.14536 38.9472L7.71679 45.5186C8.02487 45.8266 8.44266 45.9997 8.87829 45.9997C9.31391 45.9997 9.73171 45.8266 10.0398 45.5186L16.6112 38.9472C16.9192 38.6391 17.0922 38.2213 17.0922 37.7857C17.0922 37.3501 16.9192 36.9323 16.6112 36.6242L14.487 34.5L17.9616 31.0254C19.6244 32.2166 21.6185 32.8572 23.664 32.8572C25.7095 32.8572 27.7036 32.2166 29.3664 31.0254L33.5211 35.1818V46H46.664V32.8571H35.8441L31.6894 28.7024ZM38.4497 3.96586L42.6981 8.21429L38.4497 12.4627L34.2013 8.21429L38.4497 3.96586ZM8.87829 42.0341L4.62986 37.7857L8.87829 33.5373L13.1267 37.7857L8.87829 42.0341ZM10.5211 9.85714H3.94972V3.28571H10.5211V9.85714ZM17.0926 23C17.0926 21.7003 17.478 20.4298 18.2001 19.3491C18.9221 18.2684 19.9485 17.4262 21.1492 16.9288C22.35 16.4314 23.6713 16.3013 24.946 16.5548C26.2208 16.8084 27.3917 17.4343 28.3107 18.3533C29.2297 19.2723 29.8556 20.4432 30.1092 21.718C30.3627 22.9927 30.2326 24.314 29.7352 25.5148C29.2378 26.7155 28.3956 27.7419 27.3149 28.4639C26.2342 29.186 24.9637 29.5714 23.664 29.5714C21.9218 29.5693 20.2516 28.8762 19.0197 27.6443C17.7878 26.4124 17.0947 24.7422 17.0926 23V23ZM36.8069 36.1429H43.3783V42.7143H36.8069V36.1429Z" fill="#DEB47D"/>
</svg>
