<svg width="41" height="47" viewBox="0 0 41 47" fill="none" xmlns="http://www.w3.org/2000/svg">
<path d="M40.8431 15.8233C39.7157 7.12833 32.2081 0 23.0606 0C14.0155 0 6.58479 6.815 5.32925 15.6667L0.383958 24.7533C-0.666597 26.4767 0.563321 28.7222 2.56194 28.7222H5.12427V33.9444C5.12427 36.8167 7.43036 39.1667 10.2489 39.1667H12.8113V44.3889C12.8113 45.825 13.9643 47 15.3736 47H28.1852C29.5945 47 30.7476 45.825 30.7476 44.3889V34.78C34.1817 33.1147 37.0091 30.3824 38.8231 26.9761C40.6372 23.5699 41.3444 19.6651 40.8431 15.8233ZM21.7794 28.7222C20.7289 28.7222 19.8833 27.8606 19.8833 26.79C19.8833 25.7194 20.7289 24.8839 21.7794 24.8839C22.83 24.8839 23.6499 25.7194 23.6499 26.79C23.6499 27.8606 22.8556 28.7222 21.7794 28.7222ZM26.2891 17.4422C25.1617 19.1394 24.0855 19.6617 23.4962 20.7583C23.2656 21.2022 23.1631 21.4894 23.1631 22.8994H20.447C20.447 22.1422 20.3445 20.9411 20.9082 19.8706C21.6257 18.5389 23.0349 17.7556 23.8293 16.5806C24.6748 15.3533 24.2136 13.0294 21.7794 13.0294C20.1908 13.0294 19.4221 14.2567 19.089 15.275L16.6291 14.2306C17.321 12.1939 19.1146 10.4444 21.7794 10.4444C23.983 10.4444 25.4948 11.4628 26.2635 12.7422C26.9297 13.865 27.314 15.9278 26.2891 17.4422Z" fill="#DEB47D"/>
</svg>
