<svg width="45" height="44" viewBox="0 0 45 44" fill="none" xmlns="http://www.w3.org/2000/svg">
<path d="M22.664 0C10.5149 0 0.664001 9.85089 0.664001 22C0.664001 34.1491 10.5149 44 22.664 44C34.8131 44 44.664 34.1491 44.664 22C44.664 9.85089 34.8131 0 22.664 0ZM22.664 34.7679C21.5787 34.7679 20.6997 33.8888 20.6997 32.8036C20.6997 31.7183 21.5787 30.8393 22.664 30.8393C23.7493 30.8393 24.6283 31.7183 24.6283 32.8036C24.6283 33.8888 23.7493 34.7679 22.664 34.7679ZM25.7528 23.9888C25.3081 24.1606 24.9255 24.4623 24.6548 24.8548C24.3841 25.2472 24.238 25.7121 24.2354 26.1888V27.3036C24.2354 27.5196 24.0586 27.6964 23.8426 27.6964H21.4854C21.2694 27.6964 21.0926 27.5196 21.0926 27.3036V26.2478C21.0926 25.1134 21.4216 23.9937 22.0698 23.0607C22.7033 22.1473 23.5872 21.45 24.6283 21.0522C26.2979 20.4089 27.3783 19.0094 27.3783 17.4821C27.3783 15.3165 25.2618 13.5536 22.664 13.5536C20.0662 13.5536 17.9497 15.3165 17.9497 17.4821V17.8554C17.9497 18.0714 17.7729 18.2482 17.5569 18.2482H15.1997C14.9836 18.2482 14.8069 18.0714 14.8069 17.8554V17.4821C14.8069 15.5522 15.6515 13.75 17.1836 12.4094C18.6569 11.1179 20.6015 10.4107 22.664 10.4107C24.7265 10.4107 26.6711 11.1228 28.1444 12.4094C29.6765 13.75 30.5211 15.5522 30.5211 17.4821C30.5211 20.3205 28.6502 22.8741 25.7528 23.9888Z" fill="#DEB47D"/>
</svg>
