<svg width="48" height="47" viewBox="0 0 48 47" fill="none" xmlns="http://www.w3.org/2000/svg">
<path d="M28.2697 0C17.5546 0 8.87412 8.50139 8.87412 18.9856C8.86858 22.4395 9.83035 25.8288 11.6549 28.7851L2.25136 37.9902L2.28408 38.0222C1.2804 38.9626 0.664002 40.2975 0.664002 41.8063C0.663395 44.7211 3.03564 47.0006 6.01034 47C7.52981 46.9994 8.88867 46.4043 9.85841 45.4361L9.88205 45.4592L19.5844 35.9611C22.2794 37.2857 25.254 37.9741 28.2697 37.9712C38.9854 37.9712 47.664 29.471 47.664 18.9856C47.664 8.50139 38.9848 0 28.2697 0V0ZM28.3872 30.5057C21.6899 30.5057 16.2648 25.1933 16.2648 18.6397C16.2648 12.0873 21.6899 6.7737 28.3872 6.7737C35.0846 6.7737 40.5085 12.0867 40.5085 18.6397C40.5091 25.1933 35.0846 30.5057 28.3872 30.5057Z" fill="#DEB47D"/>
</svg>
