<svg width="41" height="39" viewBox="0 0 41 39" fill="none" xmlns="http://www.w3.org/2000/svg">
<g clip-path="url(#clip0_93_4)">
<path fill-rule="evenodd" clip-rule="evenodd" d="M13.1498 10.8741C11.5145 10.2309 9.71423 10.1494 8.02825 10.6421C6.34227 11.1348 4.86491 12.1743 3.82543 13.5991C2.78596 15.0239 2.2425 16.7545 2.2794 18.5222C2.3163 20.29 2.93149 21.996 4.0295 23.3756C5.12751 24.7551 6.64694 25.7311 8.35199 26.152C10.057 26.5729 11.8524 26.4153 13.4593 25.7035C15.0663 24.9916 16.3951 23.7655 17.2394 22.2153C18.0838 20.6652 18.3965 18.8776 18.129 17.1302C18.0831 16.8294 18.1577 16.5227 18.3363 16.2773C18.515 16.032 18.7831 15.8682 19.0817 15.8219C19.3803 15.7757 19.6849 15.8508 19.9285 16.0308C20.1721 16.2107 20.3347 16.4807 20.3806 16.7815C20.7241 19.0282 20.3217 21.3262 19.2359 23.3191C18.1501 25.3119 16.4416 26.8881 14.3755 27.803C12.3094 28.7179 10.0012 28.9205 7.80914 28.3791C5.61707 27.8378 3.66369 26.5829 2.25211 24.8092C0.840522 23.0355 0.0496674 20.8421 0.00226246 18.5694C-0.0451425 16.2967 0.653553 14.0718 1.98993 12.24C3.32631 10.4081 5.22564 9.07169 7.3932 8.43813C9.56075 7.80456 11.8753 7.90927 13.9778 8.73599C14.119 8.78933 14.2483 8.8704 14.3582 8.97449C14.468 9.07857 14.5563 9.2036 14.6178 9.34231C14.6793 9.48102 14.7128 9.63065 14.7164 9.78252C14.72 9.93439 14.6936 10.0855 14.6388 10.227C14.584 10.3685 14.5018 10.4976 14.397 10.6069C14.2922 10.7162 14.1669 10.8034 14.0284 10.8635C13.8899 10.9236 13.7409 10.9554 13.59 10.957C13.4392 10.9586 13.2896 10.9301 13.1498 10.873V10.8741Z" fill="#DEB47D"/>
<path fill-rule="evenodd" clip-rule="evenodd" d="M9.11133 37.8531V28.6766C9.11133 28.3724 9.23132 28.0806 9.4449 27.8655C9.65848 27.6504 9.94816 27.5295 10.2502 27.5295C10.5523 27.5295 10.8419 27.6504 11.0555 27.8655C11.2691 28.0806 11.3891 28.3724 11.3891 28.6766V37.8531C11.3891 38.1573 11.2691 38.449 11.0555 38.6642C10.8419 38.8793 10.5523 39.0001 10.2502 39.0001C9.94816 39.0001 9.65848 38.8793 9.4449 38.6642C9.23132 38.449 9.11133 38.1573 9.11133 37.8531Z" fill="#DEB47D"/>
<path fill-rule="evenodd" clip-rule="evenodd" d="M5.69482 32.1178C5.69482 31.8136 5.81481 31.5218 6.0284 31.3067C6.24198 31.0916 6.53166 30.9707 6.83371 30.9707H13.667C13.9691 30.9707 14.2588 31.0916 14.4724 31.3067C14.6859 31.5218 14.8059 31.8136 14.8059 32.1178C14.8059 32.422 14.6859 32.7138 14.4724 32.9289C14.2588 33.144 13.9691 33.2649 13.667 33.2649H6.83371C6.53166 33.2649 6.24198 33.144 6.0284 32.9289C5.81481 32.7138 5.69482 32.422 5.69482 32.1178ZM26.0832 10.6254C24.8211 10.2665 23.4905 10.2268 22.2095 10.5097C20.9285 10.7927 19.7366 11.3895 18.7394 12.2474C17.7422 13.1053 16.9705 14.1977 16.4928 15.4278C16.0151 16.6579 15.846 17.9878 16.0006 19.2994C16.0191 19.4494 16.008 19.6016 15.9679 19.7472C15.9278 19.8929 15.8595 20.0291 15.767 20.1481C15.6744 20.267 15.5594 20.3664 15.4287 20.4405C15.2979 20.5146 15.1538 20.5619 15.0048 20.5797C14.8558 20.5976 14.7048 20.5856 14.5604 20.5444C14.416 20.5033 14.2811 20.4338 14.1634 20.34C14.0458 20.2462 13.9477 20.1298 13.8748 19.9977C13.802 19.8656 13.7557 19.7203 13.7388 19.5701C13.4727 17.3127 13.9538 15.03 15.1075 13.0762C16.2612 11.1224 18.0229 9.60671 20.1193 8.7644C22.2157 7.92208 24.5295 7.80022 26.7017 8.41773C28.8738 9.03524 30.7829 10.3576 32.1326 12.1796C33.4823 14.0015 34.1972 16.2213 34.1664 18.4943C34.1355 20.7673 33.3606 22.9665 31.9619 24.7506C30.5632 26.5347 28.6189 27.804 26.4308 28.3614C24.2427 28.9188 21.933 28.7333 19.8603 27.8335C19.723 27.774 19.5986 27.6877 19.4943 27.5797C19.39 27.4717 19.3079 27.3441 19.2526 27.2042C19.1409 26.9215 19.1452 26.6057 19.2647 26.3263C19.3841 26.0469 19.6089 25.8267 19.8896 25.7142C20.1702 25.6017 20.4838 25.6061 20.7612 25.7264C21.7637 26.164 22.8448 26.3894 23.9375 26.3886C25.0301 26.3878 26.1109 26.1609 27.1128 25.7218C28.1147 25.2828 29.0164 24.6411 29.7618 23.8364C30.5071 23.0318 31.0804 22.0814 31.4459 21.0443C31.8114 20.0073 31.9613 18.9056 31.8864 17.8077C31.8116 16.7098 31.5134 15.6392 31.0106 14.6622C30.5077 13.6852 29.8108 12.8227 28.9632 12.1283C28.1156 11.4338 27.1353 10.9223 26.0832 10.6254Z" fill="#DEB47D"/>
<path fill-rule="evenodd" clip-rule="evenodd" d="M30.5146 12.8551C30.3011 12.64 30.1812 12.3483 30.1812 12.0441C30.1812 11.74 30.3011 11.4483 30.5146 11.2332L39.0563 2.63021C39.1613 2.52066 39.287 2.43327 39.4259 2.37315C39.5649 2.31304 39.7143 2.2814 39.8656 2.28007C40.0168 2.27875 40.1668 2.30777 40.3067 2.36545C40.4467 2.42312 40.5738 2.50829 40.6808 2.616C40.7877 2.7237 40.8723 2.85177 40.9295 2.99274C40.9868 3.13371 41.0156 3.28475 41.0143 3.43705C41.013 3.58936 40.9816 3.73988 40.9219 3.87982C40.8622 4.01977 40.7754 4.14634 40.6667 4.25215L32.125 12.8551C31.9114 13.0701 31.6218 13.1909 31.3198 13.1909C31.0178 13.1909 30.7282 13.0701 30.5146 12.8551Z" fill="#DEB47D"/>
<path fill-rule="evenodd" clip-rule="evenodd" d="M39.7747 10.3236C39.6251 10.3217 39.4774 10.2901 39.34 10.2306C39.2025 10.1712 39.0781 10.085 38.9737 9.97714C38.8693 9.86924 38.7871 9.74168 38.7316 9.60176C38.6762 9.46184 38.6487 9.31229 38.6506 9.16165L38.7076 4.60324L34.1816 4.66059C33.8796 4.66455 33.5883 4.54749 33.372 4.33517C33.1556 4.12285 33.0319 3.83266 33.0279 3.52844C33.024 3.22423 33.1402 2.9309 33.351 2.71298C33.5618 2.49507 33.85 2.37043 34.152 2.36647L41.015 2.2793L40.9284 9.19033C40.9266 9.34106 40.8954 9.48996 40.8364 9.62852C40.7774 9.76708 40.6919 9.89257 40.5848 9.99782C40.4776 10.1031 40.3509 10.186 40.2119 10.2419C40.0729 10.2978 39.9244 10.3256 39.7747 10.3236Z" fill="#DEB47D"/>
</g>
<defs>
<clipPath id="clip0_93_4">
<rect width="41" height="39" fill="white"/>
</clipPath>
</defs>
</svg>
