<svg width="41" height="43" viewBox="0 0 41 43" fill="none" xmlns="http://www.w3.org/2000/svg">
<path fill-rule="evenodd" clip-rule="evenodd" d="M3.41667 0.875C2.51051 0.875 1.64147 1.23716 1.00072 1.88182C0.359969 2.52648 0 3.40082 0 4.3125V38.6875C0 39.5992 0.359969 40.4735 1.00072 41.1182C1.64147 41.7628 2.51051 42.125 3.41667 42.125H37.5833C38.4895 42.125 39.3585 41.7628 39.9993 41.1182C40.64 40.4735 41 39.5992 41 38.6875V4.3125C41 3.40082 40.64 2.52648 39.9993 1.88182C39.3585 1.23716 38.4895 0.875 37.5833 0.875H3.41667ZM14.6154 18.9986C15.1743 18.4364 15.5782 17.7376 15.7873 16.9707C15.9963 16.2038 16.0034 15.3954 15.8078 14.625H15.941C16.572 14.625 17.0799 15.1372 17.0799 15.7685V24.5938C16.8863 24.6969 16.7018 24.8115 16.5276 24.9364C15.4912 25.672 14.8044 26.764 14.8044 28.2111C14.8044 28.2627 14.8044 28.3131 14.8067 28.3635V28.375C14.8796 31.1525 16.81 33.4499 19.3577 33.9861V36.3958C19.3577 36.6997 19.4777 36.9912 19.6913 37.2061C19.9049 37.4209 20.1945 37.5417 20.4966 37.5417C20.7986 37.5417 21.0883 37.4209 21.3019 37.2061C21.5155 36.9912 21.6355 36.6997 21.6355 36.3958V33.9873C24.1866 33.4522 26.1181 31.1536 26.191 28.375L26.1933 28.2111C26.1933 26.5188 25.2537 25.3122 23.9155 24.5926V15.7708C23.9154 15.6202 23.9448 15.4711 24.002 15.3319C24.0593 15.1927 24.1433 15.0663 24.2492 14.9599C24.3551 14.8534 24.4808 14.769 24.6192 14.7116C24.7576 14.6541 24.9059 14.6247 25.0556 14.625H25.1899C24.943 15.5982 25.0206 16.6261 25.4109 17.5506C25.8012 18.4751 26.4826 19.245 27.3502 19.7419C28.2178 20.2388 29.2236 20.4352 30.213 20.3009C31.2023 20.1667 32.1205 19.7091 32.8262 18.9986C34.2589 17.556 35.309 15.5772 35.3033 13.4792C35.309 11.3811 34.2589 9.3874 32.8262 7.94479C32.1197 7.23264 31.1999 6.77417 30.2088 6.64013C29.2176 6.50608 28.2101 6.70391 27.3418 7.20309C26.4735 7.70226 25.7925 8.47505 25.4041 9.40221C25.0156 10.3294 24.9411 11.3594 25.1922 12.3333H25.0556C23.1696 12.3333 21.6389 13.8687 21.6389 15.7685V23.8707C20.8825 23.7645 20.1152 23.7645 19.3588 23.8707V15.7708C19.3588 15.3195 19.2704 14.8725 19.0987 14.4555C18.927 14.0385 18.6753 13.6597 18.358 13.3406C18.0408 13.0215 17.6641 12.7684 17.2496 12.5957C16.8351 12.4231 16.3908 12.3343 15.9422 12.3345H15.8055C16.0562 11.3608 15.9815 10.3311 15.593 9.4043C15.2045 8.47749 14.5238 7.705 13.6558 7.20593C12.7878 6.70686 11.7807 6.50893 10.7898 6.64266C9.79891 6.77639 8.87926 7.23435 8.17267 7.94594C6.7388 9.38854 5.68989 11.3823 5.69444 13.4792C5.68875 15.576 6.73994 17.556 8.17267 18.9986C8.59569 19.4243 9.0979 19.7619 9.65062 19.9923C10.2033 20.2226 10.7957 20.3412 11.394 20.3412C11.9923 20.3412 12.5847 20.2226 13.1374 19.9923C13.6901 19.7619 14.1923 19.4243 14.6154 18.9986ZM20.5 31.8125C18.7222 31.8125 17.1687 30.3435 17.0868 28.375H23.9132C23.8312 30.3435 22.2778 31.8125 20.5 31.8125ZM13.6644 12.315C13.0323 12.315 12.5198 11.7994 12.5198 11.1634C12.5198 10.8595 12.3998 10.5681 12.1862 10.3532C11.9726 10.1383 11.683 10.0176 11.3809 10.0176C11.0789 10.0176 10.7892 10.1383 10.5756 10.3532C10.362 10.5681 10.242 10.8595 10.242 11.1634C10.242 12.0457 10.5723 12.8512 11.1156 13.4608C10.5522 14.0917 10.241 14.9101 10.242 15.7582C10.242 16.0621 10.362 16.3536 10.5756 16.5685C10.7892 16.7833 11.0789 16.9041 11.3809 16.9041C11.683 16.9041 11.9726 16.7833 12.1862 16.5685C12.3998 16.3536 12.5198 16.0621 12.5198 15.7582C12.5198 15.1223 13.0323 14.6067 13.6655 14.6067C13.9676 14.6067 14.2573 14.4859 14.4708 14.2711C14.6844 14.0562 14.8044 13.7647 14.8044 13.4608C14.8044 13.1569 14.6844 12.8655 14.4708 12.6506C14.2573 12.4357 13.9676 12.315 13.6655 12.315H13.6644ZM28.4779 11.1634C28.4779 11.7994 27.9654 12.315 27.3333 12.315C27.0313 12.315 26.7416 12.4357 26.528 12.6506C26.3144 12.8655 26.1944 13.1569 26.1944 13.4608C26.1944 13.7647 26.3144 14.0562 26.528 14.2711C26.7416 14.4859 27.0313 14.6067 27.3333 14.6067C27.9654 14.6067 28.4779 15.1223 28.4779 15.7582C28.4779 16.0621 28.5979 16.3536 28.8115 16.5685C29.0251 16.7833 29.3148 16.9041 29.6168 16.9041C29.9189 16.9041 30.2085 16.7833 30.4221 16.5685C30.6357 16.3536 30.7557 16.0621 30.7557 15.7582C30.7557 14.8759 30.4254 14.0704 29.8822 13.4608C30.4458 12.8297 30.7571 12.0108 30.7557 11.1623C30.7557 10.8584 30.6357 10.567 30.4221 10.3521C30.2085 10.1372 29.9189 10.0165 29.6168 10.0165C29.3148 10.0165 29.0251 10.1372 28.8115 10.3521C28.5979 10.567 28.4779 10.8584 28.4779 11.1623V11.1634Z" fill="#DEB47D"/>
</svg>
